<svg width="30" height="30" viewBox="0 0 30 30" fill="none" xmlns="http://www.w3.org/2000/svg">
<path fill-rule="evenodd" clip-rule="evenodd" d="M15 30C23.2843 30 30 23.2843 30 15C30 6.71573 23.2843 0 15 0C6.71573 0 0 6.71573 0 15C0 23.2843 6.71573 30 15 30Z" fill="black"/>
<path d="M15.7059 14.2941H20.2941C20.684 14.2941 21 14.6102 21 15C21 15.3898 20.684 15.7059 20.2941 15.7059H15.7059V20.2941C15.7059 20.684 15.3898 21 15 21C14.6102 21 14.2941 20.684 14.2941 20.2941V15.7059H9.70588C9.31604 15.7059 9 15.3898 9 15C9 14.6102 9.31603 14.2941 9.70588 14.2941H14.2941V9.70588C14.2941 9.31604 14.6102 9 15 9C15.3898 9 15.7059 9.31603 15.7059 9.70588V14.2941Z" fill="white"/>
</svg>
