<svg width="30" height="35" viewBox="0 0 30 35" fill="none" xmlns="http://www.w3.org/2000/svg">
<g id="Hard">
<g id="Hard_2" opacity="0.2">
<rect id="Rectangle" opacity="0.01" x="11" y="7" width="19" height="19" fill="black"/>
<path id="Shape" fill-rule="evenodd" clip-rule="evenodd" d="M27.4588 15.9775L24.8146 10.6892C24.4118 9.88234 23.5868 9.37323 22.685 9.375H18.315C17.4132 9.37323 16.5882 9.88234 16.1854 10.6892L13.5413 15.9775C13.431 16.1988 13.374 16.4428 13.375 16.69V21.25C13.375 22.5617 14.4383 23.625 15.75 23.625H25.25C26.5617 23.625 27.625 22.5617 27.625 21.25V16.69C27.626 16.4428 27.569 16.1988 27.4588 15.9775ZM17.6025 11.3938C17.7379 11.125 18.0141 10.9562 18.315 10.9583H22.685C22.986 10.9562 23.2621 11.125 23.3975 11.3938L25.5508 15.7083H15.4492L17.6025 11.3938ZM15.75 22.0417H25.25C25.6872 22.0417 26.0417 21.6872 26.0417 21.25V17.2917H14.9583V21.25C14.9583 21.6872 15.3128 22.0417 15.75 22.0417Z" fill="black"/>
<path id="Path" d="M23.6666 18.875H20.5C20.0628 18.875 19.7083 19.2294 19.7083 19.6667C19.7083 20.1039 20.0628 20.4583 20.5 20.4583H23.6666C24.1039 20.4583 24.4583 20.1039 24.4583 19.6667C24.4583 19.2294 24.1039 18.875 23.6666 18.875Z" fill="black"/>
<path id="Oval" d="M17.3334 20.4583C17.7706 20.4583 18.125 20.1039 18.125 19.6667C18.125 19.2294 17.7706 18.875 17.3334 18.875C16.8961 18.875 16.5417 19.2294 16.5417 19.6667C16.5417 20.1039 16.8961 20.4583 17.3334 20.4583Z" fill="black"/>
</g>
<rect id="Rectangle_2" opacity="0.1" width="1" height="35" rx="0.5" fill="black"/>
</g>
</svg>
