<svg width="19" height="19" viewBox="0 0 19 19" fill="none" xmlns="http://www.w3.org/2000/svg">
<g opacity="0.2">
<rect opacity="0.01" width="19" height="19" fill="black"/>
<path fill-rule="evenodd" clip-rule="evenodd" d="M8.93792 16.3954C9.08732 16.5436 9.28957 16.6262 9.5 16.625C9.71043 16.6262 9.91268 16.5436 10.0621 16.3954L16.2133 10.2363C17.8192 8.61363 17.8192 6.00057 16.2133 4.37793C14.5943 2.76343 11.9741 2.76343 10.355 4.37793L9.5 5.23293L8.645 4.37793C7.02593 2.76343 4.40574 2.76343 2.78667 4.37793C1.18081 6.00057 1.18081 8.61363 2.78667 10.2363L8.93792 16.3954ZM3.91083 5.49418C4.38891 5.01493 5.03891 4.74695 5.71583 4.75001C6.39276 4.74695 7.04276 5.01493 7.52083 5.49418L8.93792 6.91918C9.08657 7.06905 9.28891 7.15335 9.5 7.15335C9.71109 7.15335 9.91344 7.06905 10.0621 6.91918L11.4792 5.49418C12.4922 4.5371 14.0761 4.5371 15.0892 5.49418C16.0845 6.49477 16.0845 8.1115 15.0892 9.1121L9.5 14.7092L3.91083 9.1121C2.91548 8.1115 2.91548 6.49477 3.91083 5.49418Z" fill="black"/>
</g>
</svg>
