<svg width="120" height="20" viewBox="0 0 120 20" fill="none" xmlns="http://www.w3.org/2000/svg">
<g opacity="0.2">
<rect opacity="0.01" x="50" width="20" height="20" fill="black"/>
<path fill-rule="evenodd" clip-rule="evenodd" d="M51.6667 10C51.6667 5.39765 55.3976 1.66669 60 1.66669C62.2102 1.66669 64.3298 2.54466 65.8926 4.10746C67.4554 5.67027 68.3334 7.78988 68.3334 10C68.3334 14.6024 64.6024 18.3334 60 18.3334C55.3976 18.3334 51.6667 14.6024 51.6667 10ZM53.3334 10C53.3334 13.6819 56.3181 16.6667 60 16.6667C61.7681 16.6667 63.4638 15.9643 64.7141 14.7141C65.9643 13.4638 66.6667 11.7681 66.6667 10C66.6667 6.31812 63.6819 3.33335 60 3.33335C56.3181 3.33335 53.3334 6.31812 53.3334 10Z" fill="black"/>
<path d="M60 14.1667C60.4603 14.1667 60.8334 13.7936 60.8334 13.3333C60.8334 12.8731 60.4603 12.5 60 12.5C59.5398 12.5 59.1667 12.8731 59.1667 13.3333C59.1667 13.7936 59.5398 14.1667 60 14.1667Z" fill="black"/>
<path d="M60 5.83331C59.5398 5.83331 59.1667 6.20641 59.1667 6.66665V10.8333C59.1667 11.2936 59.5398 11.6666 60 11.6666C60.4603 11.6666 60.8334 11.2936 60.8334 10.8333V6.66665C60.8334 6.20641 60.4603 5.83331 60 5.83331Z" fill="black"/>
</g>
<g opacity="0.2">
<rect opacity="0.01" x="100" width="20" height="20" fill="black"/>
<path fill-rule="evenodd" clip-rule="evenodd" d="M117.1 12.675L115.6 11.1667V7.45003C115.641 4.59615 113.571 2.1491 110.75 1.71669C109.148 1.50574 107.533 1.99483 106.317 3.05899C105.102 4.12316 104.403 5.65933 104.4 7.27503V11.1667L102.9 12.675C102.515 13.0666 102.402 13.6508 102.612 14.1581C102.823 14.6653 103.317 14.9969 103.867 15H106.667V15.2834C106.748 17.0448 108.238 18.4087 110 18.3334C111.762 18.4087 113.252 17.0448 113.333 15.2834V15H116.133C116.683 14.9969 117.177 14.6653 117.388 14.1581C117.598 13.6508 117.485 13.0666 117.1 12.675ZM111.667 15.2834C111.571 16.1161 110.836 16.7257 110 16.6667C109.164 16.7257 108.429 16.1161 108.333 15.2834V15H111.667V15.2834ZM105.575 12.35L104.592 13.3334H115.408L114.417 12.35C114.105 12.0355 113.931 11.6097 113.933 11.1667V7.41669C113.976 5.39844 112.526 3.6569 110.533 3.33336C109.402 3.18568 108.262 3.54211 107.417 4.30836C106.56 5.05617 106.068 6.13768 106.067 7.27503V11.1667C106.067 11.6109 105.89 12.0369 105.575 12.35Z" fill="black"/>
</g>
<g opacity="0.2">
<rect opacity="0.01" width="20" height="20" fill="black"/>
<path fill-rule="evenodd" clip-rule="evenodd" d="M1.66669 10C1.66669 5.39765 5.39765 1.66669 10 1.66669C12.2102 1.66669 14.3298 2.54466 15.8926 4.10746C17.4554 5.67027 18.3334 7.78988 18.3334 10C18.3334 14.6024 14.6024 18.3334 10 18.3334C5.39765 18.3334 1.66669 14.6024 1.66669 10ZM3.33335 10C3.33335 13.6819 6.31812 16.6667 10 16.6667C11.7681 16.6667 13.4638 15.9643 14.7141 14.7141C15.9643 13.4638 16.6667 11.7681 16.6667 10C16.6667 6.31812 13.6819 3.33335 10 3.33335C6.31812 3.33335 3.33335 6.31812 3.33335 10Z" fill="black"/>
<path d="M12.5 9.16669H10.8334V7.50002C10.8334 7.03978 10.4603 6.66669 10 6.66669C9.53978 6.66669 9.16669 7.03978 9.16669 7.50002V9.16669H7.50002C7.03978 9.16669 6.66669 9.53978 6.66669 10C6.66669 10.4603 7.03978 10.8334 7.50002 10.8334H9.16669V12.5C9.16669 12.9603 9.53978 13.3334 10 13.3334C10.4603 13.3334 10.8334 12.9603 10.8334 12.5V10.8334H12.5C12.9603 10.8334 13.3334 10.4603 13.3334 10C13.3334 9.53978 12.9603 9.16669 12.5 9.16669Z" fill="black"/>
</g>
</svg>
