<svg width="88" height="35" viewBox="0 0 88 35" fill="none" xmlns="http://www.w3.org/2000/svg">
<path opacity="0.1" d="M36.952 19.888V25H35.314V12.31H39.346C40.798 12.31 41.884 12.652 42.604 13.336C43.324 14.008 43.684 14.932 43.684 16.108C43.684 17.296 43.312 18.226 42.568 18.898C41.824 19.558 40.75 19.888 39.346 19.888H36.952ZM39.202 18.52C40.198 18.52 40.912 18.31 41.344 17.89C41.788 17.47 42.01 16.876 42.01 16.108C42.01 15.316 41.788 14.716 41.344 14.308C40.912 13.888 40.198 13.678 39.202 13.678H36.952V18.52H39.202ZM54.3812 15.118V25H52.7432V22.678C52.4912 23.482 52.0412 24.1 51.3932 24.532C50.7572 24.952 50.0132 25.162 49.1612 25.162C48.0212 25.162 47.0972 24.796 46.3892 24.064C45.6812 23.32 45.3272 22.258 45.3272 20.878V15.118H46.9652V20.716C46.9652 21.7 47.2172 22.462 47.7212 23.002C48.2252 23.53 48.9092 23.794 49.7732 23.794C50.6732 23.794 51.3932 23.506 51.9332 22.93C52.4732 22.342 52.7432 21.49 52.7432 20.374V15.118H54.3812ZM62.4594 14.992C63.3354 14.992 64.1154 15.196 64.7994 15.604C65.4834 16.012 66.0174 16.6 66.4014 17.368C66.7974 18.136 66.9954 19.036 66.9954 20.068C66.9954 21.1 66.7974 22 66.4014 22.768C66.0174 23.524 65.4834 24.106 64.7994 24.514C64.1154 24.922 63.3354 25.126 62.4594 25.126C61.4994 25.126 60.6834 24.886 60.0114 24.406C59.3514 23.914 58.8954 23.272 58.6434 22.48V25H57.0054V11.68H58.6434V17.638C58.8954 16.846 59.3514 16.21 60.0114 15.73C60.6834 15.238 61.4994 14.992 62.4594 14.992ZM61.9914 16.45C61.3554 16.45 60.7794 16.6 60.2634 16.9C59.7474 17.188 59.3454 17.608 59.0574 18.16C58.7694 18.712 58.6254 19.348 58.6254 20.068C58.6254 20.788 58.7694 21.424 59.0574 21.976C59.3454 22.516 59.7474 22.936 60.2634 23.236C60.7794 23.536 61.3554 23.686 61.9914 23.686C63.0114 23.686 63.8214 23.368 64.4214 22.732C65.0334 22.084 65.3394 21.196 65.3394 20.068C65.3394 18.94 65.0334 18.058 64.4214 17.422C63.8214 16.774 63.0114 16.45 61.9914 16.45ZM70.7723 11.68V25H69.1343V11.68H70.7723ZM73.1178 12.22C73.1178 11.92 73.2198 11.68 73.4238 11.5C73.6278 11.308 73.8978 11.212 74.2338 11.212C74.5698 11.212 74.8398 11.308 75.0438 11.5C75.2478 11.68 75.3498 11.92 75.3498 12.22C75.3498 12.52 75.2478 12.766 75.0438 12.958C74.8398 13.138 74.5698 13.228 74.2338 13.228C73.8978 13.228 73.6278 13.138 73.4238 12.958C73.2198 12.766 73.1178 12.52 73.1178 12.22ZM75.0438 15.118V25H73.4058V15.118H75.0438ZM82.0513 14.992C83.3113 14.992 84.3553 15.328 85.1833 16C86.0113 16.672 86.5213 17.572 86.7133 18.7H84.9853C84.8653 17.992 84.5353 17.44 83.9953 17.044C83.4673 16.636 82.8073 16.432 82.0153 16.432C81.4393 16.432 80.9113 16.564 80.4313 16.828C79.9633 17.092 79.5853 17.5 79.2973 18.052C79.0093 18.592 78.8653 19.264 78.8653 20.068C78.8653 20.872 79.0093 21.55 79.2973 22.102C79.5853 22.642 79.9633 23.044 80.4313 23.308C80.9113 23.572 81.4393 23.704 82.0153 23.704C82.8073 23.704 83.4673 23.5 83.9953 23.092C84.5353 22.684 84.8653 22.126 84.9853 21.418H86.7133C86.5213 22.558 86.0113 23.464 85.1833 24.136C84.3553 24.796 83.3113 25.126 82.0513 25.126C81.1033 25.126 80.2633 24.922 79.5313 24.514C78.7993 24.106 78.2233 23.524 77.8033 22.768C77.3953 22 77.1913 21.1 77.1913 20.068C77.1913 19.036 77.3953 18.136 77.8033 17.368C78.2233 16.6 78.7993 16.012 79.5313 15.604C80.2633 15.196 81.1033 14.992 82.0513 14.992Z" fill="black"/>
<g opacity="0.2">
<rect opacity="0.01" x="11" y="7" width="19" height="19" fill="black"/>
<rect opacity="0.01" x="11" y="7" width="19" height="19" fill="black"/>
<path fill-rule="evenodd" clip-rule="evenodd" d="M12.5833 16.5C12.5833 12.1277 16.1277 8.58331 20.5 8.58331C22.5996 8.58331 24.6132 9.41739 26.0979 10.9021C27.5826 12.3867 28.4166 14.4003 28.4166 16.5C28.4166 20.8722 24.8722 24.4166 20.5 24.4166C16.1277 24.4166 12.5833 20.8722 12.5833 16.5ZM21.9171 10.3329C21.4523 10.2255 20.977 10.1698 20.5 10.1666C17.0022 10.1666 14.1666 13.0022 14.1666 16.5C14.1678 16.8822 14.2023 17.2637 14.2696 17.64C15.2987 18.0675 16.9533 18.5425 18.0379 17.6954C18.79 17.1333 18.79 16.5 18.79 15.4233C18.7216 14.5245 18.8909 13.6235 19.2808 12.8108C19.6368 12.2427 20.1439 11.7849 20.7454 11.4887C20.7817 11.466 20.818 11.4437 20.8542 11.4213L20.8542 11.4213C21.0074 11.3268 21.1587 11.2334 21.2996 11.1246C21.5674 10.9155 21.7794 10.6435 21.9171 10.3329ZM14.9583 19.5083C15.4756 19.6428 16.0072 19.7145 16.5416 19.7221C17.4359 19.7467 18.3121 19.4676 19.0275 18.9304C20.3812 17.8696 20.3812 16.5079 20.3812 15.4154C20.3212 14.7831 20.4219 14.1458 20.6741 13.5629C20.9033 13.2509 21.2085 13.0029 21.5608 12.8425C21.8125 12.6954 22.0557 12.5342 22.2891 12.3596C22.7811 11.971 23.1632 11.4607 23.3975 10.8791C24.5113 11.449 25.4314 12.3361 26.0416 13.4283C24.9096 13.5866 23.3025 13.9587 22.9858 15.4312C22.9143 15.783 22.8772 16.141 22.875 16.5C22.9006 16.9012 22.8215 17.3023 22.6454 17.6637L22.5662 17.7983C22.0516 18.6533 21.4737 19.6271 22.2575 20.965C22.3525 21.1312 22.4554 21.2895 22.5583 21.4479L22.5583 21.4479L22.5583 21.4479C22.769 21.6913 22.9111 21.9864 22.97 22.3029C22.1914 22.6461 21.3508 22.8266 20.5 22.8333C18.1837 22.8217 16.0585 21.5466 14.9583 19.5083ZM23.9041 20.6008C24.0989 20.885 24.266 21.1872 24.4029 21.5033L24.3791 21.5429C26.38 20.0096 27.2712 17.4292 26.6433 14.9879C25.8833 15.0433 24.6562 15.2016 24.5296 15.7796C24.4814 16.0407 24.4575 16.3057 24.4583 16.5712C24.4886 17.239 24.3411 17.9029 24.0308 18.495L23.9516 18.6296C23.4529 19.4212 23.3421 19.6746 23.6508 20.2129C23.73 20.3475 23.8171 20.4741 23.9041 20.6008Z" fill="black"/>
</g>
<rect opacity="0.1" width="1" height="35" rx="0.5" fill="black"/>
</svg>
