<svg width="20" height="20" viewBox="0 0 20 20" fill="none" xmlns="http://www.w3.org/2000/svg">
<g id="attach-outline" opacity="0.2">
<rect id="Rectangle" opacity="0.01" width="20" height="20" fill="black"/>
<path id="Path" d="M7.74165 17.5C6.35092 17.4933 5.02102 16.9289 4.04998 15.9333C3.08638 15.0201 2.52557 13.761 2.49118 12.4339C2.45679 11.1067 2.95164 9.8203 3.86665 8.85834L9.99998 2.66667C10.6618 2.00601 11.5651 1.64472 12.5 1.66667C13.5011 1.67008 14.4589 2.07542 15.1583 2.79167C16.5926 4.17259 16.6483 6.45059 15.2833 7.9L9.11665 14.0917C8.71768 14.4933 8.17444 14.7184 7.60831 14.7167C6.99663 14.7175 6.41059 14.471 5.98331 14.0333C5.10351 13.1815 5.07377 11.7801 5.91665 10.8917L11.6083 5.175C11.9425 4.95305 12.3874 5.00073 12.667 5.28847C12.9466 5.57621 12.9815 6.02232 12.75 6.35L7.05831 12.0667C6.86085 12.3046 6.89052 12.6568 7.12498 12.8583C7.24224 12.9764 7.40032 13.045 7.56665 13.05C7.69109 13.0518 7.81109 13.0038 7.89998 12.9167L14.0583 6.725C14.7776 5.92595 14.7219 4.69739 13.9333 3.96667C13.2024 3.2078 12.0057 3.1529 11.2083 3.84167L5.04998 10C4.44514 10.6496 4.12438 11.5137 4.1588 12.4006C4.19321 13.2876 4.57995 14.1242 5.23331 14.725C5.88861 15.4043 6.78948 15.7917 7.73331 15.8C8.54695 15.8066 9.32968 15.4887 9.90831 14.9167L16.0666 8.725C16.3911 8.39824 16.919 8.39637 17.2458 8.72084C17.5726 9.0453 17.5744 9.57324 17.25 9.9L11.0916 16.0917C10.2084 16.9905 9.00178 17.4978 7.74165 17.5Z" fill="black"/>
</g>
</svg>
