<svg width="20" height="20" viewBox="0 0 20 20" fill="none" xmlns="http://www.w3.org/2000/svg">
<g id="heart-outline" opacity="0.2">
<rect id="Rectangle" opacity="0.01" width="20" height="20" fill="black"/>
<path id="Shape" fill-rule="evenodd" clip-rule="evenodd" d="M9.40831 17.2583C9.56557 17.4143 9.77847 17.5013 9.99998 17.5C10.2215 17.5013 10.4344 17.4143 10.5916 17.2583L17.0666 10.775C18.757 9.06696 18.757 6.31637 17.0666 4.60833C15.3624 2.90886 12.6043 2.90886 10.9 4.60833L9.99998 5.50833L9.09998 4.60833C7.39569 2.90886 4.63759 2.90886 2.93331 4.60833C1.24293 6.31637 1.24293 9.06696 2.93331 10.775L9.40831 17.2583ZM4.11664 5.78333C4.61988 5.27886 5.30409 4.99677 6.01664 5C6.7292 4.99677 7.4134 5.27886 7.91664 5.78333L9.40831 7.28333C9.56478 7.44109 9.77778 7.52983 9.99998 7.52983C10.2222 7.52983 10.4352 7.44109 10.5916 7.28333L12.0833 5.78333C13.1497 4.77588 14.817 4.77588 15.8833 5.78333C16.931 6.83659 16.931 8.53841 15.8833 9.59167L9.99998 15.4833L4.11664 9.59167C3.0689 8.53841 3.0689 6.83659 4.11664 5.78333Z" fill="black"/>
</g>
</svg>
