<svg width="20" height="20" viewBox="0 0 20 20" fill="none" xmlns="http://www.w3.org/2000/svg">
<g id="message-square-outline" opacity="0.2">
<rect id="Rectangle" opacity="0.01" width="20" height="20" fill="black"/>
<path id="Oval" d="M10 10C10.4603 10 10.8334 9.62691 10.8334 9.16667C10.8334 8.70643 10.4603 8.33334 10 8.33334C9.53978 8.33334 9.16669 8.70643 9.16669 9.16667C9.16669 9.62691 9.53978 10 10 10Z" fill="black"/>
<path id="Oval_2" d="M13.3333 10C13.7936 10 14.1667 9.62691 14.1667 9.16667C14.1667 8.70643 13.7936 8.33334 13.3333 8.33334C12.8731 8.33334 12.5 8.70643 12.5 9.16667C12.5 9.62691 12.8731 10 13.3333 10Z" fill="black"/>
<path id="Oval_3" d="M6.66665 10C7.12688 10 7.49998 9.62691 7.49998 9.16667C7.49998 8.70643 7.12688 8.33334 6.66665 8.33334C6.20641 8.33334 5.83331 8.70643 5.83331 9.16667C5.83331 9.62691 6.20641 10 6.66665 10Z" fill="black"/>
<path id="Shape" fill-rule="evenodd" clip-rule="evenodd" d="M4.16669 2.5H15.8334C17.2141 2.5 18.3334 3.61929 18.3334 5V13.3333C18.3334 14.714 17.2141 15.8333 15.8334 15.8333H7.12502C6.96418 15.8271 6.80499 15.8677 6.66669 15.95L2.92502 18.2167C2.79639 18.293 2.64959 18.3333 2.50002 18.3333C2.35686 18.3329 2.21623 18.2956 2.09169 18.225C1.82961 18.0777 1.66721 17.8006 1.66669 17.5V5C1.66669 3.61929 2.78598 2.5 4.16669 2.5ZM15.8334 14.1667C16.2936 14.1667 16.6667 13.7936 16.6667 13.3333V5C16.6667 4.53976 16.2936 4.16667 15.8334 4.16667H4.16669C3.70645 4.16667 3.33335 4.53976 3.33335 5V16.025L5.83335 14.525C6.22326 14.2902 6.66987 14.1663 7.12502 14.1667H15.8334Z" fill="black"/>
</g>
</svg>
